<?xml version="1.0" encoding="UTF-8"?>
<!DOCTYPE svg PUBLIC "-//W3C//DTD SVG 1.1//EN" "http://www.w3.org/Graphics/SVG/1.1/DTD/svg11.dtd">
<svg xmlns="http://www.w3.org/2000/svg" version="1.1" width="1096px" height="227px" style="shape-rendering:geometricPrecision; text-rendering:geometricPrecision; image-rendering:optimizeQuality; fill-rule:evenodd; clip-rule:evenodd" xmlns:xlink="http://www.w3.org/1999/xlink">
<g><path style="opacity:1" fill="#1671cf" d="M 665.5,50.5 C 665.5,71.8333 665.5,93.1667 665.5,114.5C 640.477,113.843 615.811,114.51 591.5,116.5C 590.221,117.715 589.221,117.382 588.5,115.5C 581.687,114.509 574.687,114.175 567.5,114.5C 567.5,121.5 567.5,128.5 567.5,135.5C 575.243,136.13 582.576,135.463 589.5,133.5C 590.167,132.167 590.833,132.167 591.5,133.5C 595.715,135.436 600.381,136.103 605.5,135.5C 605.5,133.833 605.5,132.167 605.5,130.5C 606.822,130.67 607.989,130.337 609,129.5C 609.464,130.094 609.631,130.761 609.5,131.5C 609.5,132.833 609.5,134.167 609.5,135.5C 612.713,135.81 615.713,135.477 618.5,134.5C 619.167,134.5 619.833,134.5 620.5,134.5C 635.324,135.496 650.324,135.829 665.5,135.5C 665.5,147.167 665.5,158.833 665.5,170.5C 625.996,170.832 586.663,170.499 547.5,169.5C 547.5,148.833 547.5,128.167 547.5,107.5C 549.735,107.795 551.735,107.461 553.5,106.5C 554.5,106.167 555.167,105.5 555.5,104.5C 563.671,105.772 572.005,106.439 580.5,106.5C 588.568,106.483 596.401,105.816 604,104.5C 604.717,105.044 605.217,105.711 605.5,106.5C 610.167,107.833 614.833,107.833 619.5,106.5C 619.833,106.5 620.167,106.5 620.5,106.5C 622.304,107.162 624.304,107.495 626.5,107.5C 628.952,107.461 630.952,106.794 632.5,105.5C 633.209,104.596 634.209,104.263 635.5,104.5C 635.5,105.5 635.5,106.5 635.5,107.5C 640.595,107.779 645.595,107.445 650.5,106.5C 653.625,107.479 656.958,107.813 660.5,107.5C 660.824,100.646 660.491,93.979 659.5,87.5C 656.813,87.3359 654.146,87.5026 651.5,88C 650.5,91.3333 649.5,91.3333 648.5,88C 646.167,87.3333 643.833,87.3333 641.5,88C 640.68,90.9143 639.68,91.081 638.5,88.5C 635.667,88.1667 632.833,87.8333 630,87.5C 611.548,87.3443 593.048,87.6776 574.5,88.5C 573.5,91.1667 572.5,91.1667 571.5,88.5C 568.572,87.5159 565.572,87.1826 562.5,87.5C 561.5,87.5 560.5,87.5 559.5,87.5C 556.813,87.3359 554.146,87.5026 551.5,88C 550.777,90.0183 549.777,91.8516 548.5,93.5C 547.504,79.3431 547.171,65.0097 547.5,50.5C 586.833,50.5 626.167,50.5 665.5,50.5 Z"/></g>
<g><path style="opacity:1" fill="#e52427" d="M 411.5,63.5 C 411.5,64.1667 411.833,64.5 412.5,64.5C 393.474,82.971 390.307,103.971 403,127.5C 405.961,131.141 409.127,134.474 412.5,137.5C 411.833,137.5 411.5,137.833 411.5,138.5C 401.174,146.231 389.507,149.065 376.5,147C 371.45,146.594 366.783,145.094 362.5,142.5C 362.027,141.094 361.027,140.427 359.5,140.5C 359.027,139.094 358.027,138.427 356.5,138.5C 347.855,132.669 342.022,124.669 339,114.5C 335.902,103.214 336.735,92.2143 341.5,81.5C 342.906,81.0269 343.573,80.0269 343.5,78.5C 346.783,70.8846 352.116,65.2179 359.5,61.5C 361.967,61.2451 363.967,60.2451 365.5,58.5C 377.628,53.357 389.962,53.1904 402.5,58C 405.862,59.3426 408.862,61.176 411.5,63.5 Z"/></g>
<g><path style="opacity:1" fill="#f89f23" d="M 411.5,138.5 C 411.5,137.833 411.833,137.5 412.5,137.5C 429.834,121.985 434.334,103.319 426,81.5C 422.336,75.0209 417.836,69.3543 412.5,64.5C 411.833,64.5 411.5,64.1667 411.5,63.5C 431.242,51.3374 450.908,51.5041 470.5,64C 488.414,80.7954 492.581,100.629 483,123.5C 469.725,143.545 451.225,151.045 427.5,146C 421.859,143.963 416.526,141.463 411.5,138.5 Z"/></g>
<g><path style="opacity:0.733" fill="#f79390" d="M 365.5,58.5 C 363.967,60.2451 361.967,61.2451 359.5,61.5C 361.033,59.7549 363.033,58.7549 365.5,58.5 Z"/></g>
<g><path style="opacity:1" fill="#f16521" d="M 412.5,64.5 C 417.836,69.3543 422.336,75.0209 426,81.5C 434.334,103.319 429.834,121.985 412.5,137.5C 409.127,134.474 405.961,131.141 403,127.5C 390.307,103.971 393.474,82.971 412.5,64.5 Z"/></g>
<g><path style="opacity:0.999" fill="#2d4083" d="M 780.5,79.5 C 780.5,82.5 780.5,85.5 780.5,88.5C 780.672,89.4916 780.338,90.1583 779.5,90.5C 778.923,87.3551 776.923,85.8551 773.5,86C 763.167,85.3333 752.833,85.3333 742.5,86C 742,86.5 741.5,87 741,87.5C 740.209,92.8737 739.209,98.207 738,103.5C 737.19,107.358 737.357,111.024 738.5,114.5C 737.878,115.627 737.045,116.627 736,117.5C 734.408,126.613 732.908,135.613 731.5,144.5C 725.132,144.83 718.798,144.496 712.5,143.5C 714.955,118.508 718.622,93.5085 723.5,68.5C 724.906,68.0269 725.573,67.0269 725.5,65.5C 739.036,64.1081 752.703,64.2747 766.5,66C 774.321,67.3221 778.988,71.8221 780.5,79.5 Z"/></g>
<g><path style="opacity:0.424" fill="#a6adcb" d="M 725.5,65.5 C 725.573,67.0269 724.906,68.0269 723.5,68.5C 723.427,66.9731 724.094,65.9731 725.5,65.5 Z"/></g>
<g><path style="opacity:0.251" fill="#c3c8da" d="M 116.5,71.5 C 113.062,70.1768 109.229,69.5102 105,69.5C 100.752,69.5304 96.5856,69.8638 92.5,70.5C 100.433,68.5316 108.766,67.865 117.5,68.5C 117.737,69.791 117.404,70.791 116.5,71.5 Z"/></g>
<g><path style="opacity:0.251" fill="#c7cedf" d="M 126.5,69.5 C 134.316,68.5076 142.316,68.1743 150.5,68.5C 150.737,69.791 150.404,70.791 149.5,71.5C 142.24,69.5349 134.573,68.8682 126.5,69.5 Z"/></g>
<g><path style="opacity:1" fill="#21428b" d="M 209.5,69.5 C 210.748,72.7378 211.415,76.2378 211.5,80C 211.485,83.5758 210.818,86.7425 209.5,89.5C 202.639,87.4273 195.639,86.5939 188.5,87C 184.397,87.7115 181.397,89.8782 179.5,93.5C 180.128,95.2581 181.128,96.7581 182.5,98C 188.464,101.328 194.464,104.661 200.5,108C 203.767,110.726 206.434,113.892 208.5,117.5C 208.427,119.027 209.094,120.027 210.5,120.5C 213.83,134.346 209.497,145.18 197.5,153C 185.374,158.261 172.707,159.928 159.5,158C 155.573,157.276 151.906,156.109 148.5,154.5C 147.631,152.283 147.298,149.95 147.5,147.5C 147.954,143.185 148.954,139.019 150.5,135C 156.029,136.464 161.696,137.797 167.5,139C 174.478,140.528 180.645,139.028 186,134.5C 187.612,132.544 187.778,130.544 186.5,128.5C 186.5,126.5 185.5,125.5 183.5,125.5C 176.689,121.949 170.022,118.115 163.5,114C 162.748,113.329 162.414,112.496 162.5,111.5C 162.217,110.711 161.717,110.044 161,109.5C 160.218,99.7862 160.385,90.1196 161.5,80.5C 167.119,73.5182 174.452,69.3515 183.5,68C 190.5,67.3333 197.5,67.3333 204.5,68C 206.382,68.1981 208.048,68.6981 209.5,69.5 Z"/></g>
<g><path style="opacity:1" fill="#2c2f6e" d="M 55.5,70.5 C 55.8102,72.1436 56.8102,73.1436 58.5,73.5C 60.2617,76.5035 61.4283,79.8368 62,83.5C 63.8266,93.1299 65.3266,102.797 66.5,112.5C 66.5,127.167 66.5,141.833 66.5,156.5C 62.4975,156.964 58.8309,156.298 55.5,154.5C 49.0777,130.593 42.5777,106.593 36,82.5C 33.0788,80.2879 29.9121,78.4545 26.5,77C 20.7295,75.4653 15.0628,73.632 9.5,71.5C 9.83333,70.8333 10.1667,70.1667 10.5,69.5C 24.4881,68.3339 38.4881,68.1672 52.5,69C 53.5266,69.5133 54.5266,70.0133 55.5,70.5 Z"/></g>
<g><path style="opacity:1" fill="#243a7e" d="M 126.5,69.5 C 134.573,68.8682 142.24,69.5349 149.5,71.5C 143.941,99.3852 137.941,127.052 131.5,154.5C 127.756,155.761 123.756,156.428 119.5,156.5C 115.435,156.489 111.768,155.822 108.5,154.5C 114.345,126.123 120.345,97.7897 126.5,69.5 Z"/></g>
<g><path style="opacity:1" fill="#576daa" d="M 209.5,69.5 C 212.316,69.5442 214.649,70.5442 216.5,72.5C 214.533,78.3678 213.199,84.3678 212.5,90.5C 211.209,90.7373 210.209,90.404 209.5,89.5C 210.818,86.7425 211.485,83.5758 211.5,80C 211.415,76.2378 210.748,72.7378 209.5,69.5 Z"/></g>
<g><path style="opacity:0.376" fill="#a8a8c3" d="M 55.5,70.5 C 57.1898,70.8564 58.1898,71.8564 58.5,73.5C 56.8102,73.1436 55.8102,72.1436 55.5,70.5 Z"/></g>
<g><path style="opacity:1" fill="#1e53a2" d="M 273.5,70.5 C 280.246,98.5578 286.246,126.891 291.5,155.5C 285.69,156.49 279.69,156.823 273.5,156.5C 273.5,127.833 273.5,99.1667 273.5,70.5 Z"/></g>
<g><path style="opacity:0.455" fill="#f7a2a2" d="M 343.5,78.5 C 343.573,80.0269 342.906,81.0269 341.5,81.5C 341.427,79.9731 342.094,78.9731 343.5,78.5 Z"/></g>
<g><path style="opacity:1" fill="#3a4f90" d="M 161.5,80.5 C 160.385,90.1196 160.218,99.7862 161,109.5C 161.717,110.044 162.217,110.711 162.5,111.5C 161.504,111.586 160.671,111.252 160,110.5C 153.652,100.041 154.152,90.0407 161.5,80.5 Z"/></g>
<g><path style="opacity:1" fill="#222d65" d="M 779.5,90.5 C 777.437,103.731 769.77,111.564 756.5,114C 750.509,114.499 744.509,114.666 738.5,114.5C 737.357,111.024 737.19,107.358 738,103.5C 739.209,98.207 740.209,92.8737 741,87.5C 741.5,87 742,86.5 742.5,86C 752.833,85.3333 763.167,85.3333 773.5,86C 776.923,85.8551 778.923,87.3551 779.5,90.5 Z"/></g>
<g><path style="opacity:1" fill="#364688" d="M 831.5,140.5 C 827.167,140.5 822.833,140.5 818.5,140.5C 818.5,137.5 818.5,134.5 818.5,131.5C 820.696,115.88 823.363,100.38 826.5,85C 835.5,84.3333 844.5,84.3333 853.5,85C 862.082,85.9657 866.749,90.7991 867.5,99.5C 865.013,117.946 854.346,126.113 835.5,124C 834.006,129.466 832.673,134.966 831.5,140.5 Z M 839.5,96.5 C 851.2,96.3953 853.533,100.895 846.5,110C 843.118,110.824 839.784,110.657 836.5,109.5C 837.61,105.159 838.61,100.826 839.5,96.5 Z"/></g>
<g><path style="opacity:1" fill="#36a1d9" d="M 970.5,84.5 C 979.506,84.3336 988.506,84.5002 997.5,85C 1001.05,85.7736 1004.38,87.107 1007.5,89C 1008.89,90.1711 1009.73,91.6711 1010,93.5C 1011.88,116.112 1001.38,126.112 978.5,123.5C 977.475,129.127 976.642,134.793 976,140.5C 971.263,141.469 966.43,141.803 961.5,141.5C 963.347,122.272 966.347,103.272 970.5,84.5 Z M 983.5,96.5 C 995.2,96.3953 997.533,100.895 990.5,110C 987.183,110.498 983.85,110.665 980.5,110.5C 981.249,105.752 982.249,101.085 983.5,96.5 Z"/></g>
<g><path style="opacity:1" fill="#3aa2da" d="M 1064.5,84.5 C 1068.51,84.3345 1072.51,84.5012 1076.5,85C 1077.11,86.231 1077.44,87.5643 1077.5,89C 1074.79,106.186 1071.96,123.353 1069,140.5C 1064.92,141.629 1060.75,141.796 1056.5,141C 1055.98,140.439 1055.64,139.772 1055.5,139C 1058.61,120.842 1061.61,102.676 1064.5,84.5 Z"/></g>
<g><path style="opacity:0.11" fill="#c9d3e3" d="M 780.5,79.5 C 781.245,82.3896 781.912,85.3896 782.5,88.5C 781.833,88.5 781.167,88.5 780.5,88.5C 780.5,85.5 780.5,82.5 780.5,79.5 Z"/></g>
<g><path style="opacity:0.263" fill="#c8dff4" d="M 659.5,87.5 C 660.491,93.979 660.824,100.646 660.5,107.5C 656.958,107.813 653.625,107.479 650.5,106.5C 653.5,106.5 656.5,106.5 659.5,106.5C 659.5,100.167 659.5,93.8333 659.5,87.5 Z"/></g>
<g><path style="opacity:1" fill="#a9c5ec" d="M 559.5,87.5 C 560.5,87.5 561.5,87.5 562.5,87.5C 561.5,92.8333 560.5,92.8333 559.5,87.5 Z"/></g>
<g><path style="opacity:1" fill="#2c9dd7" d="M 780.5,88.5 C 781.167,88.5 781.833,88.5 782.5,88.5C 786.398,91.8196 788.398,96.153 788.5,101.5C 788.613,112.785 783.946,121.285 774.5,127C 768.334,129.084 762,130.417 755.5,131C 753.5,138.667 751.5,146.333 749.5,154C 743.141,154.831 736.807,154.664 730.5,153.5C 730.291,152.914 729.957,152.414 729.5,152C 730.22,149.509 730.887,147.009 731.5,144.5C 732.908,135.613 734.408,126.613 736,117.5C 737.045,116.627 737.878,115.627 738.5,114.5C 744.509,114.666 750.509,114.499 756.5,114C 769.77,111.564 777.437,103.731 779.5,90.5C 780.338,90.1583 780.672,89.4916 780.5,88.5 Z"/></g>
<g><path style="opacity:1" fill="#508ad9" d="M 562.5,100.5 C 562.833,101.833 563.167,103.167 563.5,104.5C 560.439,104.413 557.773,103.413 555.5,101.5C 553.227,103.413 550.561,104.413 547.5,104.5C 547.833,103.167 548.167,101.833 548.5,100.5C 553.167,85.8333 557.833,85.8333 562.5,100.5 Z M 554.5,95.5 C 556.465,95.9483 556.798,96.9483 555.5,98.5C 554.614,97.675 554.281,96.675 554.5,95.5 Z"/></g>
<g><path style="opacity:0.088" fill="#e0edf9" d="M 564.5,90.5 C 564.5,94.8333 564.5,99.1667 564.5,103.5C 564.5,103.833 564.5,104.167 564.5,104.5C 564.167,104.5 563.833,104.5 563.5,104.5C 563.167,103.167 562.833,101.833 562.5,100.5C 563.167,97.1667 563.833,93.8333 564.5,90.5 Z"/></g>
<g><path style="opacity:0.999" fill="#568ad9" d="M 578.5,104.5 C 578.666,100.486 578.499,96.4862 578,92.5C 577.392,94.1545 576.892,95.8211 576.5,97.5C 577.092,100.641 576.092,102.974 573.5,104.5C 570.701,103.189 569.368,100.855 569.5,97.5C 569.108,95.8211 568.608,94.1545 568,92.5C 567.501,96.1516 567.335,99.8183 567.5,103.5C 566.5,103.5 565.5,103.5 564.5,103.5C 564.5,99.1667 564.5,94.8333 564.5,90.5C 566.288,89.3775 568.288,89.2109 570.5,90C 571.525,92.0715 572.358,94.2381 573,96.5C 573.931,94.5405 574.764,92.5405 575.5,90.5C 577.421,89.359 579.421,89.1923 581.5,90C 582.469,94.7367 582.803,99.57 582.5,104.5C 581.167,104.5 579.833,104.5 578.5,104.5 Z"/></g>
<g><path style="opacity:0.998" fill="#1c74d1" d="M 595.5,90.5 C 596.404,91.209 596.737,92.209 596.5,93.5C 593.753,93.1866 591.086,93.52 588.5,94.5C 590.743,95.4742 593.076,95.8076 595.5,95.5C 595.5,96.5 595.5,97.5 595.5,98.5C 592.833,98.5 590.167,98.5 587.5,98.5C 587.5,99.5 587.5,100.5 587.5,101.5C 590.247,101.187 592.914,101.52 595.5,102.5C 591.893,103.489 588.226,103.823 584.5,103.5C 584.5,99.1667 584.5,94.8333 584.5,90.5C 588.167,90.5 591.833,90.5 595.5,90.5 Z"/></g>
<g><path style="opacity:0.999" fill="#548dd9" d="M 609.5,102.5 C 608.791,103.404 607.791,103.737 606.5,103.5C 604.807,102.525 603.307,101.192 602,99.5C 601.506,101.134 601.34,102.801 601.5,104.5C 600.167,104.5 598.833,104.5 597.5,104.5C 597.5,99.5 597.5,94.5 597.5,89.5C 601.911,89.021 606.078,89.6876 610,91.5C 610.895,94.4663 610.395,97.1329 608.5,99.5C 609.127,100.417 609.461,101.417 609.5,102.5 Z M 601.5,93.5 C 603.429,93.2308 605.095,93.7308 606.5,95C 605.667,95.1667 604.833,95.3333 604,95.5C 602.624,95.3158 601.791,94.6491 601.5,93.5 Z"/></g>
<g><path style="opacity:0.434" fill="#a9ccee" d="M 615.5,90.5 C 616.486,94.97 616.819,99.6367 616.5,104.5C 612.958,104.813 609.625,104.479 606.5,103.5C 607.791,103.737 608.791,103.404 609.5,102.5C 611.43,98.6273 612.097,94.294 611.5,89.5C 613.099,89.2322 614.432,89.5655 615.5,90.5 Z"/></g>
<g><path style="opacity:0.997" fill="#006ecf" d="M 615.5,90.5 C 615.5,94.8333 615.5,99.1667 615.5,103.5C 614.5,103.5 613.5,103.5 612.5,103.5C 612.5,99.1667 612.5,94.8333 612.5,90.5C 613.5,90.5 614.5,90.5 615.5,90.5 Z"/></g>
<g><path style="opacity:0.998" fill="#538cd9" d="M 641.5,101.5 C 642.11,102.391 642.443,103.391 642.5,104.5C 639.395,104.218 636.562,103.218 634,101.5C 631.834,102.164 629.834,103.164 628,104.5C 618.198,105.327 615.198,100.993 619,91.5C 621.951,89.9239 625.117,89.2572 628.5,89.5C 628.5,90.8333 628.5,92.1667 628.5,93.5C 623.017,92.8069 621.017,94.9735 622.5,100C 624.134,100.494 625.801,100.66 627.5,100.5C 628.166,95.8185 630.333,92.1519 634,89.5C 635.107,89.5852 636.107,89.9186 637,90.5C 639.072,93.9712 640.572,97.6379 641.5,101.5 Z M 633.5,94.5 C 635.088,95.6353 635.421,96.9686 634.5,98.5C 633.571,97.3112 633.238,95.9778 633.5,94.5 Z"/></g>
<g><path style="opacity:0.259" fill="#cae1f5" d="M 647.5,90.5 C 646.167,90.5 644.833,90.5 643.5,90.5C 643.5,95.1667 643.5,99.8333 643.5,104.5C 643.167,104.5 642.833,104.5 642.5,104.5C 642.443,103.391 642.11,102.391 641.5,101.5C 642.483,97.7016 642.817,93.7016 642.5,89.5C 644.415,89.2155 646.081,89.5489 647.5,90.5 Z"/></g>
<g><path style="opacity:0.999" fill="#4b84d7" d="M 647.5,90.5 C 649.063,91.9448 650.396,93.6115 651.5,95.5C 651.461,96.7562 651.961,97.7562 653,98.5C 653.497,95.854 653.664,93.1873 653.5,90.5C 654.5,90.5 655.5,90.5 656.5,90.5C 657.486,94.97 657.819,99.6367 657.5,104.5C 655.473,104.662 653.473,104.495 651.5,104C 649.623,101.749 648.123,99.2487 647,96.5C 646.503,99.146 646.336,101.813 646.5,104.5C 645.5,104.5 644.5,104.5 643.5,104.5C 643.5,99.8333 643.5,95.1667 643.5,90.5C 644.833,90.5 646.167,90.5 647.5,90.5 Z"/></g>
<g><path style="opacity:0.447" fill="#adcfef" d="M 656.5,90.5 C 655.5,90.5 654.5,90.5 653.5,90.5C 653.664,93.1873 653.497,95.854 653,98.5C 651.961,97.7562 651.461,96.7562 651.5,95.5C 652.461,93.7354 652.795,91.7354 652.5,89.5C 654.099,89.2322 655.432,89.5655 656.5,90.5 Z"/></g>
<g><path style="opacity:0.314" fill="#abbdda" d="M 238.5,89.5 C 238.573,91.0269 237.906,92.0269 236.5,92.5C 236.427,90.9731 237.094,89.9731 238.5,89.5 Z"/></g>
<g><path style="opacity:1" fill="#273274" d="M 116.5,71.5 C 105.44,99.7192 93.7737,127.719 81.5,155.5C 76.5947,156.445 71.5947,156.779 66.5,156.5C 66.5,141.833 66.5,127.167 66.5,112.5C 67.9498,116.966 69.1165,121.632 70,126.5C 77.2112,107.696 84.7112,89.0293 92.5,70.5C 96.5856,69.8638 100.752,69.5304 105,69.5C 109.229,69.5102 113.062,70.1768 116.5,71.5 Z"/></g>
<g><path style="opacity:0.435" fill="#90bfea" d="M 569.5,97.5 C 568.532,99.6074 568.198,101.941 568.5,104.5C 567.167,104.5 565.833,104.5 564.5,104.5C 564.5,104.167 564.5,103.833 564.5,103.5C 565.5,103.5 566.5,103.5 567.5,103.5C 567.335,99.8183 567.501,96.1516 568,92.5C 568.608,94.1545 569.108,95.8211 569.5,97.5 Z"/></g>
<g><path style="opacity:0.113" fill="#d4e6f7" d="M 578.5,104.5 C 577.833,102.167 577.167,99.8333 576.5,97.5C 576.892,95.8211 577.392,94.1545 578,92.5C 578.499,96.4862 578.666,100.486 578.5,104.5 Z"/></g>
<g><path style="opacity:0.255" fill="#b3d2f0" d="M 595.5,90.5 C 591.833,90.5 588.167,90.5 584.5,90.5C 584.5,94.8333 584.5,99.1667 584.5,103.5C 588.226,103.823 591.893,103.489 595.5,102.5C 592.914,101.52 590.247,101.187 587.5,101.5C 587.5,100.5 587.5,99.5 587.5,98.5C 590.167,98.5 592.833,98.5 595.5,98.5C 593.369,99.3138 591.036,99.8138 588.5,100C 591.146,100.497 593.813,100.664 596.5,100.5C 596.5,101.833 596.5,103.167 596.5,104.5C 592.167,104.5 587.833,104.5 583.5,104.5C 583.5,99.5 583.5,94.5 583.5,89.5C 587.702,89.1832 591.702,89.5166 595.5,90.5 Z"/></g>
<g><path style="opacity:1" fill="#1c4b99" d="M 273.5,70.5 C 273.5,99.1667 273.5,127.833 273.5,156.5C 272.5,156.5 271.5,156.5 270.5,156.5C 269.232,154.095 268.565,151.428 268.5,148.5C 268.5,146.833 268.5,145.167 268.5,143.5C 258.111,142.859 248.111,143.526 238.5,145.5C 237.538,149.395 236.204,153.061 234.5,156.5C 226.316,156.826 218.316,156.492 210.5,155.5C 219.171,134.484 227.838,113.484 236.5,92.5C 237.906,92.0269 238.573,91.0269 238.5,89.5C 240.092,83.6434 242.259,77.9767 245,72.5C 250.248,69.0405 256.081,67.7072 262.5,68.5C 266.565,68.5112 270.232,69.1778 273.5,70.5 Z M 263.5,123.5 C 261.085,124.814 258.252,125.481 255,125.5C 251.748,125.481 248.915,124.814 246.5,123.5C 250.216,114.374 253.716,105.041 257,95.5C 258.854,104.944 261.021,114.277 263.5,123.5 Z"/></g>
<g><path style="opacity:1" fill="#394889" d="M 878.5,102.5 C 882.846,102.334 887.179,102.501 891.5,103C 893.848,103.346 895.681,104.513 897,106.5C 897.483,105.552 897.649,104.552 897.5,103.5C 902.167,103.5 906.833,103.5 911.5,103.5C 909.56,115.472 907.727,127.472 906,139.5C 905.5,140 905,140.5 904.5,141C 900.5,141.667 896.5,141.667 892.5,141C 891.874,140.25 891.374,139.416 891,138.5C 882.579,144.113 874.412,143.779 866.5,137.5C 861.167,128.787 861.334,120.121 867,111.5C 870.449,107.877 874.283,104.877 878.5,102.5 Z M 894.5,125.5 C 893.094,125.973 892.427,126.973 892.5,128.5C 888.512,131.271 884.178,131.937 879.5,130.5C 879.573,128.973 878.906,127.973 877.5,127.5C 876.368,119.794 879.701,115.127 887.5,113.5C 894.201,115.002 896.534,119.002 894.5,125.5 Z"/></g>
<g><path style="opacity:1" fill="#39a2da" d="M 1023.5,102.5 C 1027.85,102.334 1032.18,102.501 1036.5,103C 1037.97,103.635 1039.3,104.469 1040.5,105.5C 1045.18,103.243 1050.01,102.91 1055,104.5C 1053.83,116.881 1051.99,129.214 1049.5,141.5C 1045.17,141.5 1040.83,141.5 1036.5,141.5C 1036.72,140.325 1036.39,139.325 1035.5,138.5C 1028.49,143.195 1021.15,143.695 1013.5,140C 1006.61,132.894 1005.11,124.727 1009,115.5C 1012.16,109.164 1017,104.831 1023.5,102.5 Z M 1029.5,113.5 C 1039.5,115.002 1041.67,120.002 1036,128.5C 1031.46,132.413 1026.96,132.413 1022.5,128.5C 1021.43,125.562 1021.26,122.562 1022,119.5C 1024.13,116.847 1026.63,114.847 1029.5,113.5 Z"/></g>
<g><path style="opacity:0.998" fill="#374788" d="M 929.5,153.5 C 925.167,153.5 920.833,153.5 916.5,153.5C 916.5,152.5 916.5,151.5 916.5,150.5C 919.489,145.862 922.489,141.195 925.5,136.5C 921.075,125.795 917.742,114.795 915.5,103.5C 920.214,103.173 924.88,103.507 929.5,104.5C 931.501,110.506 933.501,116.506 935.5,122.5C 940.028,116.472 944.361,110.305 948.5,104C 953.155,103.501 957.821,103.334 962.5,103.5C 962.657,104.873 962.49,106.207 962,107.5C 951.304,123.013 940.47,138.347 929.5,153.5 Z"/></g>
<g><path style="opacity:0.4" fill="#a8c8ed" d="M 555.5,104.5 C 555.167,105.5 554.5,106.167 553.5,106.5C 553.369,105.761 553.536,105.094 554,104.5C 554.69,103.262 555.19,103.262 555.5,104.5 Z"/></g>
<g><path style="opacity:0.079" fill="#e0ecf9" d="M 619.5,106.5 C 614.833,107.833 610.167,107.833 605.5,106.5C 610.476,106.401 615.143,106.401 619.5,106.5 Z"/></g>
<g><path style="opacity:0.073" fill="#ddebf8" d="M 632.5,105.5 C 630.952,106.794 628.952,107.461 626.5,107.5C 624.304,107.495 622.304,107.162 620.5,106.5C 624.6,106.763 628.6,106.43 632.5,105.5 Z"/></g>
<g><path style="opacity:0.08" fill="#dbeaf8" d="M 635.5,104.5 C 637.553,105.69 639.887,106.357 642.5,106.5C 644.964,106.41 647.13,105.743 649,104.5C 649.717,105.044 650.217,105.711 650.5,106.5C 645.595,107.445 640.595,107.779 635.5,107.5C 635.5,106.5 635.5,105.5 635.5,104.5 Z"/></g>
<g><path style="opacity:0.188" fill="#d6e7f6" d="M 665.5,50.5 C 626.167,50.5 586.833,50.5 547.5,50.5C 547.171,65.0097 547.504,79.3431 548.5,93.5C 547.244,95.941 547.244,98.2743 548.5,100.5C 548.167,101.833 547.833,103.167 547.5,104.5C 548.918,106.308 550.918,106.975 553.5,106.5C 551.735,107.461 549.735,107.795 547.5,107.5C 547.5,128.167 547.5,148.833 547.5,169.5C 546.501,129.67 546.168,89.6701 546.5,49.5C 586.337,49.1681 626.004,49.5014 665.5,50.5 Z"/></g>
<g><path style="opacity:0.173" fill="#d4e6f6" d="M 665.5,114.5 C 640.931,115.176 616.264,115.842 591.5,116.5C 615.811,114.51 640.477,113.843 665.5,114.5 Z"/></g>
<g><path style="opacity:0.089" fill="#d2e5f6" d="M 588.5,115.5 C 581.833,115.5 575.167,115.5 568.5,115.5C 568.5,121.833 568.5,128.167 568.5,134.5C 575.588,134.795 582.588,134.462 589.5,133.5C 582.576,135.463 575.243,136.13 567.5,135.5C 567.5,128.5 567.5,121.5 567.5,114.5C 574.687,114.175 581.687,114.509 588.5,115.5 Z"/></g>
<g><path style="opacity:0.507" fill="#91c0ea" d="M 642.5,118.5 C 645.625,117.521 648.958,117.187 652.5,117.5C 652.5,118.5 652.5,119.5 652.5,120.5C 652.167,120.5 651.833,120.5 651.5,120.5C 649.012,118.612 646.012,117.945 642.5,118.5 Z"/></g>
<g><path style="opacity:0.999" fill="#1c73d0" d="M 581.5,126.5 C 579.791,126.608 577.791,126.775 575.5,127C 574.944,127.383 574.611,127.883 574.5,128.5C 576.698,129.165 579.031,129.832 581.5,130.5C 578.232,131.487 574.898,131.82 571.5,131.5C 571.5,127.167 571.5,122.833 571.5,118.5C 574.898,118.18 578.232,118.513 581.5,119.5C 578.914,120.48 576.247,120.813 573.5,120.5C 573.5,121.5 573.5,122.5 573.5,123.5C 576.167,123.5 578.833,123.5 581.5,123.5C 581.5,124.5 581.5,125.5 581.5,126.5 Z"/></g>
<g><path style="opacity:0.999" fill="#538ad9" d="M 587.5,118.5 C 588.79,119.058 589.623,120.058 590,121.5C 590.852,120.429 591.685,119.429 592.5,118.5C 594.099,118.232 595.432,118.566 596.5,119.5C 595.797,121.716 594.464,123.549 592.5,125C 594.464,126.451 595.797,128.284 596.5,130.5C 595.432,131.434 594.099,131.768 592.5,131.5C 591.685,130.571 590.852,129.571 590,128.5C 589.148,129.571 588.315,130.571 587.5,131.5C 585.901,131.768 584.568,131.434 583.5,130.5C 584.203,128.284 585.536,126.451 587.5,125C 585.536,123.549 584.203,121.716 583.5,119.5C 584.568,118.566 585.901,118.232 587.5,118.5 Z"/></g>
<g><path style="opacity:0.128" fill="#c1dbf3" d="M 592.5,118.5 C 597.833,117.167 603.167,117.167 608.5,118.5C 605.167,118.5 601.833,118.5 598.5,118.5C 598.5,122.833 598.5,127.167 598.5,131.5C 596.389,132.742 594.389,132.742 592.5,131.5C 594.099,131.768 595.432,131.434 596.5,130.5C 597.833,126.833 597.833,123.167 596.5,119.5C 595.432,118.566 594.099,118.232 592.5,118.5 Z"/></g>
<g><path style="opacity:0.999" fill="#2c78d2" d="M 608.5,118.5 C 609.833,118.5 610.5,119.167 610.5,120.5C 610.5,121.833 610.5,123.167 610.5,124.5C 610.586,125.496 610.252,126.329 609.5,127C 607.19,127.497 604.857,127.663 602.5,127.5C 601.566,128.568 601.232,129.901 601.5,131.5C 600.5,131.5 599.5,131.5 598.5,131.5C 598.5,127.167 598.5,122.833 598.5,118.5C 601.833,118.5 605.167,118.5 608.5,118.5 Z M 606.5,121.5 C 606.5,122.167 606.5,122.833 606.5,123.5C 601.167,122.833 601.167,122.167 606.5,121.5 Z"/></g>
<g><path style="opacity:0.068" fill="#c9dff4" d="M 622.5,118.5 C 619.167,118.5 615.833,118.5 612.5,118.5C 612.5,122.833 612.5,127.167 612.5,131.5C 611.833,129.167 611.167,126.833 610.5,124.5C 610.5,123.167 610.5,121.833 610.5,120.5C 611.404,119.791 611.737,118.791 611.5,117.5C 615.371,117.185 619.038,117.518 622.5,118.5 Z"/></g>
<g><path style="opacity:0.999" fill="#3c7ed4" d="M 622.5,118.5 C 626.157,120.874 626.491,123.874 623.5,127.5C 624.127,128.417 624.461,129.417 624.5,130.5C 623.791,131.404 622.791,131.737 621.5,131.5C 619.736,130.674 618.402,129.341 617.5,127.5C 617.44,126.957 617.107,126.624 616.5,126.5C 615.548,128.045 615.215,129.712 615.5,131.5C 614.5,131.5 613.5,131.5 612.5,131.5C 612.5,127.167 612.5,122.833 612.5,118.5C 615.833,118.5 619.167,118.5 622.5,118.5 Z M 620.5,121.5 C 620.5,122.167 620.5,122.833 620.5,123.5C 615.167,122.833 615.167,122.167 620.5,121.5 Z"/></g>
<g><path style="opacity:0.999" fill="#1871d0" d="M 627.5,118.5 C 631.226,118.177 634.893,118.511 638.5,119.5C 635.914,120.48 633.247,120.813 630.5,120.5C 630.5,121.5 630.5,122.5 630.5,123.5C 633.167,123.5 635.833,123.5 638.5,123.5C 638.657,124.873 638.49,126.207 638,127.5C 635.959,126.577 633.792,126.244 631.5,126.5C 630.596,127.209 630.263,128.209 630.5,129.5C 633.247,129.187 635.914,129.52 638.5,130.5C 634.893,131.489 631.226,131.823 627.5,131.5C 627.393,126.857 627.393,122.524 627.5,118.5 Z"/></g>
<g><path style="opacity:0.999" fill="#5a8eda" d="M 642.5,118.5 C 646.012,117.945 649.012,118.612 651.5,120.5C 649.393,121.468 647.059,121.802 644.5,121.5C 643.957,121.56 643.624,121.893 643.5,122.5C 645.396,123.466 647.396,123.799 649.5,123.5C 651.027,123.427 652.027,124.094 652.5,125.5C 652.5,127.167 652.5,128.833 652.5,130.5C 648.817,132.25 644.817,132.917 640.5,132.5C 640.5,131.167 640.5,129.833 640.5,128.5C 643.187,128.664 645.854,128.497 648.5,128C 643.602,128.236 640.602,126.069 639.5,121.5C 640.1,120.1 641.1,119.1 642.5,118.5 Z"/></g>
<g><path style="opacity:0.998" fill="#5489d8" d="M 655.5,118.5 C 658.572,118.183 661.572,118.516 664.5,119.5C 662.031,120.168 659.698,120.835 657.5,121.5C 659.684,122.266 662.018,122.933 664.5,123.5C 665.833,126.167 665.833,128.833 664.5,131.5C 662.56,132.095 660.56,132.428 658.5,132.5C 656.36,132.444 654.694,131.777 653.5,130.5C 656.167,129.833 658.833,129.167 661.5,128.5C 662.043,128.44 662.376,128.107 662.5,127.5C 660.604,126.534 658.604,126.201 656.5,126.5C 655.391,126.443 654.391,126.11 653.5,125.5C 652.962,123.883 652.629,122.216 652.5,120.5C 653.222,119.449 654.222,118.782 655.5,118.5 Z"/></g>
<g><path style="opacity:0.376" fill="#a6b6d4" d="M 208.5,117.5 C 209.906,117.973 210.573,118.973 210.5,120.5C 209.094,120.027 208.427,119.027 208.5,117.5 Z"/></g>
<g><path style="opacity:0.397" fill="#a7ccee" d="M 587.5,118.5 C 585.901,118.232 584.568,118.566 583.5,119.5C 580.831,121.087 577.831,121.921 574.5,122C 577.146,122.497 579.813,122.664 582.5,122.5C 582.768,124.099 582.434,125.432 581.5,126.5C 581.5,125.5 581.5,124.5 581.5,123.5C 578.833,123.5 576.167,123.5 573.5,123.5C 573.5,122.5 573.5,121.5 573.5,120.5C 576.247,120.813 578.914,120.48 581.5,119.5C 578.232,118.513 574.898,118.18 571.5,118.5C 571.5,122.833 571.5,127.167 571.5,131.5C 574.898,131.82 578.232,131.487 581.5,130.5C 579.031,129.832 576.698,129.165 574.5,128.5C 577.855,128.091 580.855,128.758 583.5,130.5C 584.568,131.434 585.901,131.768 587.5,131.5C 582.025,132.489 576.358,132.822 570.5,132.5C 570.5,127.5 570.5,122.5 570.5,117.5C 576.358,117.178 582.025,117.511 587.5,118.5 Z"/></g>
<g><path style="opacity:0.378" fill="#a7ccee" d="M 627.5,118.5 C 631.298,117.517 635.298,117.183 639.5,117.5C 639.5,118.833 639.5,120.167 639.5,121.5C 636.813,121.336 634.146,121.503 631.5,122C 634.036,122.186 636.369,122.686 638.5,123.5C 635.833,123.5 633.167,123.5 630.5,123.5C 630.5,122.5 630.5,121.5 630.5,120.5C 633.247,120.813 635.914,120.48 638.5,119.5C 634.893,118.511 631.226,118.177 627.5,118.5 Z"/></g>
<g><path style="opacity:0.398" fill="#a1c9ed" d="M 655.5,118.5 C 658.625,117.521 661.958,117.187 665.5,117.5C 665.5,118.833 665.5,120.167 665.5,121.5C 662.833,121.5 660.167,121.5 657.5,121.5C 659.698,120.835 662.031,120.168 664.5,119.5C 661.572,118.516 658.572,118.183 655.5,118.5 Z"/></g>
<g><path style="opacity:0.561" fill="#86b9e8" d="M 620.5,121.5 C 615.167,122.167 615.167,122.833 620.5,123.5C 619.081,124.451 617.415,124.784 615.5,124.5C 615.5,123.167 615.5,121.833 615.5,120.5C 617.415,120.216 619.081,120.549 620.5,121.5 Z"/></g>
<g><path style="opacity:0.156" fill="#c4dcf3" d="M 644.5,121.5 C 646.167,122.167 647.833,122.833 649.5,123.5C 647.396,123.799 645.396,123.466 643.5,122.5C 643.624,121.893 643.957,121.56 644.5,121.5 Z"/></g>
<g><path style="opacity:0.254" fill="#a7ccee" d="M 606.5,121.5 C 601.167,122.167 601.167,122.833 606.5,123.5C 605.081,124.451 603.415,124.784 601.5,124.5C 601.5,123.167 601.5,121.833 601.5,120.5C 603.415,120.216 605.081,120.549 606.5,121.5 Z"/></g>
<g><path style="opacity:0.847" fill="#9ba7ca" d="M 183.5,125.5 C 185.5,125.5 186.5,126.5 186.5,128.5C 185.167,127.833 184.167,126.833 183.5,125.5 Z"/></g>
<g><path style="opacity:0.502" fill="#84a3cb" d="M 246.5,123.5 C 248.915,124.814 251.748,125.481 255,125.5C 258.252,125.481 261.085,124.814 263.5,123.5C 264.404,124.209 264.737,125.209 264.5,126.5C 258.167,126.5 251.833,126.5 245.5,126.5C 245.263,125.209 245.596,124.209 246.5,123.5 Z"/></g>
<g><path style="opacity:0.09" fill="#dae9f8" d="M 656.5,126.5 C 658.604,126.201 660.604,126.534 662.5,127.5C 662.376,128.107 662.043,128.44 661.5,128.5C 659.833,127.833 658.167,127.167 656.5,126.5 Z"/></g>
<g><path style="opacity:0.608" fill="#aeb5cf" d="M 894.5,125.5 C 894.573,127.027 893.906,128.027 892.5,128.5C 892.427,126.973 893.094,125.973 894.5,125.5 Z"/></g>
<g><path style="opacity:0.525" fill="#fdd8a5" d="M 481.5,128.5 C 482.919,127.549 484.585,127.216 486.5,127.5C 486.5,128.5 486.5,129.5 486.5,130.5C 484.446,130.635 482.779,129.968 481.5,128.5 Z"/></g>
<g><path style="opacity:0.376" fill="#b8d6f1" d="M 652.5,125.5 C 652.833,125.5 653.167,125.5 653.5,125.5C 653.5,126.5 653.5,127.5 653.5,128.5C 656.167,128.5 658.833,128.5 661.5,128.5C 658.833,129.167 656.167,129.833 653.5,130.5C 653.167,130.5 652.833,130.5 652.5,130.5C 652.5,128.833 652.5,127.167 652.5,125.5 Z"/></g>
<g><path style="opacity:0.482" fill="#a8afcb" d="M 877.5,127.5 C 878.906,127.973 879.573,128.973 879.5,130.5C 878.094,130.027 877.427,129.027 877.5,127.5 Z"/></g>
<g><path style="opacity:0.176" fill="#d2e6f6" d="M 602.5,127.5 C 602.5,129.167 602.5,130.833 602.5,132.5C 600.901,132.768 599.568,132.434 598.5,131.5C 599.5,131.5 600.5,131.5 601.5,131.5C 601.232,129.901 601.566,128.568 602.5,127.5 Z"/></g>
<g><path style="opacity:0.176" fill="#b8d5f1" d="M 617.5,127.5 C 616.549,128.919 616.216,130.585 616.5,132.5C 614.901,132.768 613.568,132.434 612.5,131.5C 613.5,131.5 614.5,131.5 615.5,131.5C 615.215,129.712 615.548,128.045 616.5,126.5C 617.107,126.624 617.44,126.957 617.5,127.5 Z"/></g>
<g><path style="opacity:0.176" fill="#cee2f5" d="M 624.5,130.5 C 625.289,130.783 625.956,131.283 626.5,132C 624.613,132.78 622.946,132.613 621.5,131.5C 622.791,131.737 623.791,131.404 624.5,130.5 Z"/></g>
<g><path style="opacity:0.17" fill="#c1dbf3" d="M 631.5,126.5 C 633.635,128.369 636.302,129.036 639.5,128.5C 639.5,129.833 639.5,131.167 639.5,132.5C 635.298,132.817 631.298,132.483 627.5,131.5C 631.226,131.823 634.893,131.489 638.5,130.5C 635.914,129.52 633.247,129.187 630.5,129.5C 630.263,128.209 630.596,127.209 631.5,126.5 Z"/></g>
<g><path style="opacity:0.573" fill="#a2c9ed" d="M 620.5,134.5 C 619.833,134.5 619.167,134.5 618.5,134.5C 619.167,131.833 619.833,131.833 620.5,134.5 Z"/></g>
<g><path style="opacity:0.36" fill="#accfef" d="M 605.5,130.5 C 605.5,132.167 605.5,133.833 605.5,135.5C 600.381,136.103 595.715,135.436 591.5,133.5C 595.735,134.436 600.069,134.769 604.5,134.5C 604.232,132.901 604.566,131.568 605.5,130.5 Z"/></g>
<g><path style="opacity:0.369" fill="#bbd8f2" d="M 609.5,131.5 C 610.404,132.209 610.737,133.209 610.5,134.5C 613.167,134.5 615.833,134.5 618.5,134.5C 615.713,135.477 612.713,135.81 609.5,135.5C 609.5,134.167 609.5,132.833 609.5,131.5 Z"/></g>
<g><path style="opacity:0.356" fill="#a6cbee" d="M 665.5,135.5 C 650.324,135.829 635.324,135.496 620.5,134.5C 635.412,134.824 650.245,134.491 665,133.5C 665.464,134.094 665.631,134.761 665.5,135.5 Z"/></g>
<g><path style="opacity:0.502" fill="#f8a0a0" d="M 356.5,138.5 C 358.027,138.427 359.027,139.094 359.5,140.5C 357.973,140.573 356.973,139.906 356.5,138.5 Z"/></g>
<g><path style="opacity:0.749" fill="#717eab" d="M 818.5,131.5 C 818.5,134.5 818.5,137.5 818.5,140.5C 822.833,140.5 827.167,140.5 831.5,140.5C 827.03,141.486 822.363,141.819 817.5,141.5C 817.187,137.958 817.521,134.625 818.5,131.5 Z"/></g>
<g><path style="opacity:0.365" fill="#f9adac" d="M 359.5,140.5 C 361.027,140.427 362.027,141.094 362.5,142.5C 360.973,142.573 359.973,141.906 359.5,140.5 Z"/></g>
<g><path style="opacity:0.251" fill="#becee3" d="M 268.5,148.5 C 267.566,147.432 267.232,146.099 267.5,144.5C 257.75,144.194 248.084,144.527 238.5,145.5C 248.111,143.526 258.111,142.859 268.5,143.5C 268.5,145.167 268.5,146.833 268.5,148.5 Z"/></g>
<g><path style="opacity:0.749" fill="#7b8bb5" d="M 147.5,147.5 C 147.298,149.95 147.631,152.283 148.5,154.5C 147.275,153.848 146.608,152.681 146.5,151C 146.514,149.615 146.848,148.449 147.5,147.5 Z"/></g>
<g><path style="opacity:1" fill="#383838" d="M 467.5,160.5 C 470.234,157.857 473.567,156.857 477.5,157.5C 477.5,155.833 477.5,154.167 477.5,152.5C 478.5,152.5 479.5,152.5 480.5,152.5C 480.5,158.5 480.5,164.5 480.5,170.5C 476.733,171.604 473.067,171.437 469.5,170C 466.842,167.206 466.175,164.039 467.5,160.5 Z M 473.5,160.5 C 478.571,162.534 478.738,164.868 474,167.5C 472.115,167.138 471.281,165.971 471.5,164C 471.862,162.566 472.528,161.399 473.5,160.5 Z"/></g>
<g><path style="opacity:0.666" fill="#828db5" d="M 916.5,150.5 C 916.5,151.5 916.5,152.5 916.5,153.5C 920.833,153.5 925.167,153.5 929.5,153.5C 925.03,154.486 920.363,154.819 915.5,154.5C 915.232,152.901 915.566,151.568 916.5,150.5 Z"/></g>
<g><path style="opacity:1" fill="#262626" d="M 397.5,154.5 C 398.5,154.5 399.5,154.5 400.5,154.5C 400.5,155.833 400.5,157.167 400.5,158.5C 405.833,159.167 405.833,159.833 400.5,160.5C 400.198,163.059 400.532,165.393 401.5,167.5C 402.822,167.67 403.989,167.337 405,166.5C 405.309,167.766 405.809,168.933 406.5,170C 398.672,172.678 395.672,169.844 397.5,161.5C 396.909,160.849 396.243,160.182 395.5,159.5C 396.243,158.818 396.909,158.151 397.5,157.5C 397.5,156.5 397.5,155.5 397.5,154.5 Z"/></g>
<g><path style="opacity:0.502" fill="#9499b8" d="M 55.5,154.5 C 58.8309,156.298 62.4975,156.964 66.5,156.5C 71.5947,156.779 76.5947,156.445 81.5,155.5C 73.2312,157.47 64.5645,158.136 55.5,157.5C 55.5,156.5 55.5,155.5 55.5,154.5 Z"/></g>
<g><path style="opacity:0.502" fill="#919dbe" d="M 108.5,154.5 C 111.768,155.822 115.435,156.489 119.5,156.5C 123.756,156.428 127.756,155.761 131.5,154.5C 131.5,155.5 131.5,156.5 131.5,157.5C 123.5,157.5 115.5,157.5 107.5,157.5C 107.263,156.209 107.596,155.209 108.5,154.5 Z"/></g>
<g><path style="opacity:0.502" fill="#8ca5c9" d="M 210.5,155.5 C 218.316,156.492 226.316,156.826 234.5,156.5C 226.324,157.821 217.991,157.821 209.5,156.5C 209.624,155.893 209.957,155.56 210.5,155.5 Z"/></g>
<g><path style="opacity:0.502" fill="#88aad0" d="M 291.5,155.5 C 292.043,155.56 292.376,155.893 292.5,156.5C 285.01,157.819 277.677,157.819 270.5,156.5C 271.5,156.5 272.5,156.5 273.5,156.5C 279.69,156.823 285.69,156.49 291.5,155.5 Z"/></g>
<g><path style="opacity:0.667" fill="#7d7d7d" d="M 363.5,158.5 C 360.586,158.805 357.919,158.805 355.5,158.5C 358.272,157.233 360.939,157.233 363.5,158.5 Z"/></g>
<g><path style="opacity:0.416" fill="#b0b0b0" d="M 397.5,154.5 C 398.568,153.566 399.901,153.232 401.5,153.5C 401.5,154.833 401.5,156.167 401.5,157.5C 402.833,157.5 404.167,157.5 405.5,157.5C 405.5,158.833 405.5,160.167 405.5,161.5C 404.167,161.5 402.833,161.5 401.5,161.5C 401.5,163.5 401.5,165.5 401.5,167.5C 400.532,165.393 400.198,163.059 400.5,160.5C 405.833,159.833 405.833,159.167 400.5,158.5C 400.5,157.167 400.5,155.833 400.5,154.5C 399.5,154.5 398.5,154.5 397.5,154.5 Z"/></g>
<g><path style="opacity:0.251" fill="#afafaf" d="M 354.5,158.5 C 351.5,158.5 348.5,158.5 345.5,158.5C 345.5,162.5 345.5,166.5 345.5,170.5C 344.515,166.366 344.182,162.032 344.5,157.5C 348.042,157.187 351.375,157.521 354.5,158.5 Z"/></g>
<g><path style="opacity:1" fill="#2b2b2b" d="M 354.5,158.5 C 354.833,158.5 355.167,158.5 355.5,158.5C 357.919,158.805 360.586,158.805 363.5,158.5C 364.117,158.611 364.617,158.944 365,159.5C 365.499,163.152 365.665,166.818 365.5,170.5C 364.167,170.5 362.833,170.5 361.5,170.5C 361.5,167.5 361.5,164.5 361.5,161.5C 360.167,161.5 358.833,161.5 357.5,161.5C 357.5,164.5 357.5,167.5 357.5,170.5C 356.167,170.5 354.833,170.5 353.5,170.5C 354.12,166.698 353.286,163.365 351,160.5C 348.714,163.365 347.88,166.698 348.5,170.5C 347.5,170.5 346.5,170.5 345.5,170.5C 345.5,166.5 345.5,162.5 345.5,158.5C 348.5,158.5 351.5,158.5 354.5,158.5 Z"/></g>
<g><path style="opacity:0.999" fill="#363636" d="M 377.5,158.5 C 379.414,161.684 380.08,165.351 379.5,169.5C 378.209,169.263 377.209,169.596 376.5,170.5C 370.836,172.096 367.502,169.93 366.5,164C 367.795,157.675 371.462,155.842 377.5,158.5 Z M 373.5,160.5 C 378.352,162.785 378.518,165.118 374,167.5C 369.557,165.369 369.39,163.036 373.5,160.5 Z"/></g>
<g><path style="opacity:0.627" fill="#666666" d="M 377.5,158.5 C 378.209,157.596 379.209,157.263 380.5,157.5C 380.5,161.833 380.5,166.167 380.5,170.5C 379.167,170.5 377.833,170.5 376.5,170.5C 377.209,169.596 378.209,169.263 379.5,169.5C 380.08,165.351 379.414,161.684 377.5,158.5 Z"/></g>
<g><path style="opacity:0.999" fill="#404040" d="M 389.5,167.5 C 390.043,167.44 390.376,167.107 390.5,166.5C 389.311,165.571 387.978,165.238 386.5,165.5C 382.171,164.018 381.504,161.518 384.5,158C 387.167,157.333 389.833,157.333 392.5,158C 393.337,159.011 393.67,160.178 393.5,161.5C 391.326,161.08 389.326,161.08 387.5,161.5C 391.019,161.916 393.353,163.749 394.5,167C 390.942,172.064 386.609,172.73 381.5,169C 383.666,166.515 386.332,166.015 389.5,167.5 Z"/></g>
<g><path style="opacity:0.251" fill="#c0c0c0" d="M 397.5,157.5 C 396.909,158.151 396.243,158.818 395.5,159.5C 396.243,160.182 396.909,160.849 397.5,161.5C 396.5,161.5 395.5,161.5 394.5,161.5C 394.5,160.167 394.5,158.833 394.5,157.5C 395.5,157.5 396.5,157.5 397.5,157.5 Z"/></g>
<g><path style="opacity:0.999" fill="#373737" d="M 415.5,167.5 C 416.609,167.557 417.609,167.89 418.5,168.5C 417.426,170.216 415.759,171.216 413.5,171.5C 407.596,170.706 405.429,167.373 407,161.5C 409.053,157.708 412.219,156.542 416.5,158C 418.759,159.935 419.759,162.435 419.5,165.5C 416.482,165.335 413.482,165.502 410.5,166C 411.905,167.269 413.571,167.769 415.5,167.5 Z M 415.5,161.5 C 414.167,162.833 412.833,162.833 411.5,161.5C 412.702,160.595 414.036,160.595 415.5,161.5 Z"/></g>
<g><path style="opacity:0.667" fill="#6d6d6d" d="M 430.5,159.5 C 430.167,159.5 429.833,159.5 429.5,159.5C 427.393,158.532 425.059,158.198 422.5,158.5C 422.5,162.5 422.5,166.5 422.5,170.5C 421.515,166.366 421.182,162.032 421.5,157.5C 425.012,156.945 428.012,157.612 430.5,159.5 Z"/></g>
<g><path style="opacity:1" fill="#333333" d="M 429.5,159.5 C 429.5,160.167 429.5,160.833 429.5,161.5C 428.153,160.829 426.986,160.829 426,161.5C 425.502,164.482 425.335,167.482 425.5,170.5C 424.5,170.5 423.5,170.5 422.5,170.5C 422.5,166.5 422.5,162.5 422.5,158.5C 425.059,158.198 427.393,158.532 429.5,159.5 Z"/></g>
<g><path style="opacity:1" fill="#474747" d="M 442.5,168.5 C 437.705,172.639 433.539,171.972 430,166.5C 429.506,164.866 429.34,163.199 429.5,161.5C 430.338,161.158 430.672,160.492 430.5,159.5C 434.387,157.113 438.387,156.946 442.5,159C 441.396,162.817 439.563,163.317 437,160.5C 433.525,162.216 433.025,164.383 435.5,167C 436.899,167.595 438.232,167.428 439.5,166.5C 440.518,167.193 441.518,167.859 442.5,168.5 Z"/></g>
<g><path style="opacity:0.999" fill="#373737" d="M 442.5,168.5 C 441.511,158.833 445.844,155.166 455.5,157.5C 455.5,161.833 455.5,166.167 455.5,170.5C 450.737,172.351 446.404,171.684 442.5,168.5 Z M 448.5,160.5 C 453.571,162.534 453.738,164.868 449,167.5C 447.115,167.138 446.281,165.971 446.5,164C 446.862,162.566 447.528,161.399 448.5,160.5 Z"/></g>
<g><path style="opacity:0.502" fill="#8d8d8d" d="M 467.5,160.5 C 467.167,160.5 466.833,160.5 466.5,160.5C 464.721,158.656 462.388,157.99 459.5,158.5C 459.5,162.5 459.5,166.5 459.5,170.5C 458.515,166.366 458.182,162.032 458.5,157.5C 461.5,157.5 464.5,157.5 467.5,157.5C 467.5,158.5 467.5,159.5 467.5,160.5 Z"/></g>
<g><path style="opacity:1" fill="#292929" d="M 466.5,160.5 C 465.375,161.014 464.209,161.347 463,161.5C 462.502,164.482 462.335,167.482 462.5,170.5C 461.5,170.5 460.5,170.5 459.5,170.5C 459.5,166.5 459.5,162.5 459.5,158.5C 462.388,157.99 464.721,158.656 466.5,160.5 Z"/></g>
<g><path style="opacity:0.502" fill="#838383" d="M 411.5,161.5 C 412.833,162.833 414.167,162.833 415.5,161.5C 416.043,161.56 416.376,161.893 416.5,162.5C 414.5,163.833 412.5,163.833 410.5,162.5C 410.624,161.893 410.957,161.56 411.5,161.5 Z"/></g>
<g><path style="opacity:0.157" fill="#cacaca" d="M 386.5,165.5 C 387.978,165.238 389.311,165.571 390.5,166.5C 390.376,167.107 390.043,167.44 389.5,167.5C 388.5,166.833 387.5,166.167 386.5,165.5 Z"/></g>
<g><path style="opacity:0.424" fill="#bbbbbb" d="M 415.5,167.5 C 416.947,166.115 417.947,166.448 418.5,168.5C 417.609,167.89 416.609,167.557 415.5,167.5 Z"/></g>
<g><path style="opacity:0.576" fill="#929292" d="M 482.5,168.5 C 483.833,168.5 485.167,168.5 486.5,168.5C 486.5,169.5 486.5,170.5 486.5,171.5C 484.027,171.912 482.694,170.912 482.5,168.5 Z"/></g>
</svg>
